<svg width="282" height="48" viewBox="0 0 282 48" fill="none" xmlns="http://www.w3.org/2000/svg">
<path fill-rule="evenodd" clip-rule="evenodd" d="M7.0294 7.02943C0.747911 13.3109 -1.32374 22.2082 0.814562 30.215L6.85802 24.1714C6.81382 19.7272 8.48716 15.2691 11.8782 11.8782C17.7427 6.01371 26.7988 5.28643 33.455 9.69627L25.5152 17.636H35.2126L43.223 9.62565C42.5446 8.72059 41.7936 7.85255 40.9706 7.02943C31.598 -2.34314 16.402 -2.34314 7.0294 7.02943ZM14.545 38.3038C21.2012 42.7136 30.2574 41.9862 36.1218 36.1218C39.5128 32.7308 41.1862 28.2728 41.142 23.8286L47.1854 17.7851C49.3238 25.7918 47.252 34.689 40.9706 40.9706C31.598 50.3432 16.4021 50.3432 7.0294 40.9706C6.20628 40.1474 5.45556 39.2794 4.77696 38.3744L12.7873 30.364H22.4848L14.545 38.3038Z" fill="white"/>
<path d="M260.557 28.3034V27.8576H265.734V28.3034C265.734 29.2635 266.454 29.915 267.586 30.3265C268.683 30.738 270.089 30.8751 271.049 30.8751C272.181 30.8751 273.552 30.7722 274.65 30.3608C275.713 29.9493 276.399 29.2978 276.399 28.2005C276.399 27.2747 275.678 26.7603 274.478 26.486C273.861 26.3146 273.21 26.246 272.592 26.2117C271.941 26.1774 271.358 26.1774 270.878 26.1774C265.974 26.1774 260.968 25.2859 260.968 19.5252C260.968 13.9016 265.974 12.29 271.049 12.29C275.85 12.29 281.165 14.416 281.165 19.6623V20.1424H275.987V19.6623C275.987 18.7365 275.336 18.085 274.341 17.6735C273.312 17.262 272.044 17.0906 271.049 17.0906C270.021 17.0906 268.752 17.1934 267.757 17.5706C266.797 17.9135 266.18 18.5308 266.18 19.5252C266.18 20.3824 266.832 20.8625 267.963 21.1025C268.512 21.2397 269.129 21.3082 269.712 21.3425C270.295 21.3768 270.878 21.3768 271.289 21.3768C276.33 21.3768 281.611 22.2684 281.611 28.2005C281.611 34.0298 276.33 35.71 271.049 35.71C266.317 35.71 260.557 33.6869 260.557 28.3034Z" fill="white"/>
<path d="M233.6 23.9828C233.6 18.0164 237.715 12.29 244.95 12.29C249.991 12.29 253.9 15.2389 255.511 19.4223L255.751 20.0052L249.956 20.1081L249.785 19.8681C248.722 18.2907 246.973 17.2963 244.95 17.2963C241.075 17.2963 239.018 20.6224 239.018 23.9828C239.018 27.3775 241.11 30.6351 244.95 30.6351C247.659 30.6351 249.648 28.9206 250.505 26.6232H244.436V21.7883H256.094L256.163 22.1998C256.266 22.7827 256.3 23.3999 256.3 23.9828C256.3 29.9836 252.22 35.71 244.95 35.71C237.715 35.71 233.6 29.9493 233.6 23.9828Z" fill="white"/>
<path d="M207.271 24.4286V12.7358H212.484V24.4286C212.484 27.5147 214.267 30.6351 217.798 30.6351C221.296 30.6351 223.113 27.4804 223.113 24.4286V12.7358H228.325V24.4286C228.325 29.915 224.691 35.71 217.798 35.71C210.906 35.71 207.271 29.9493 207.271 24.4286Z" fill="white"/>
<path d="M179.913 35.2642V12.7358H194.212C198.704 12.7358 200.967 16.0276 200.967 19.6623C200.967 21.1025 200.419 22.5427 199.356 23.64C201.002 24.7715 201.79 26.486 201.79 28.3034C201.79 31.9724 199.527 35.2642 195.001 35.2642H179.913ZM185.125 21.5826H194.212C195.207 21.5826 195.755 20.8625 195.755 19.8681V19.2508C195.755 18.2221 195.207 17.5363 194.212 17.5363H185.125V21.5826ZM185.125 30.4636H195.001C195.995 30.4636 196.612 29.7436 196.612 28.7491V28.0976C196.612 27.0689 195.995 26.3831 195.001 26.3831H185.125V30.4636Z" fill="white"/>
<path d="M150.635 35.2642L159.584 12.7358H166.545L175.461 35.2642H169.871L167.711 29.7436H158.281L156.155 35.2642H150.635ZM160.064 24.943H165.928L162.945 17.7421L160.064 24.943Z" fill="white"/>
<path d="M125.741 23.9828C125.741 18.0164 129.856 12.29 137.091 12.29C142.132 12.29 146.041 15.2389 147.652 19.4223L147.892 20.0052L142.097 20.1081L141.926 19.8681C140.863 18.2907 139.114 17.2963 137.091 17.2963C133.216 17.2963 131.159 20.6224 131.159 23.9828C131.159 27.3775 133.251 30.6351 137.091 30.6351C139.8 30.6351 141.789 28.9206 142.646 26.6232H136.577V21.7883H148.235L148.304 22.1998C148.407 22.7827 148.441 23.3999 148.441 23.9828C148.441 29.9836 144.36 35.71 137.091 35.71C129.856 35.71 125.741 29.9493 125.741 23.9828Z" fill="white"/>
<path d="M100.484 12.7358H121.949V17.5363H105.696V21.5826H117.766V26.3831H105.696V30.4636H121.949V35.2642H100.484V12.7358Z" fill="white"/>
<path d="M83.3306 21.7883L89.5714 12.7358H94.132V35.2642H88.9542V21.8226L85.5595 26.6232H80.8275L77.4671 21.8226V35.2642H72.255V12.7358H76.7813L83.3306 21.7883Z" fill="white"/>
</svg>
